<svg width="116" height="41" viewBox="0 0 116 41" fill="none" xmlns="http://www.w3.org/2000/svg">
<path d="M53.5352 0.430664H56.7017V18.5177H53.5352V0.430664Z" fill="white"/>
<path d="M35.3804 0.430664H38.7242L46.9824 13.7553H47.0331V0.430664H50.0476V18.5177H46.7038L38.4709 5.21841H38.3949V18.5177H35.3804V0.430664Z" fill="white"/>
<path d="M17.2764 0.430664H20.4429V10.9688C20.4429 11.5767 20.4682 12.1931 20.5189 12.818C20.5864 13.4429 20.7553 14.0086 21.0255 14.5152C21.3126 15.005 21.7348 15.4103 22.2921 15.7312C22.8663 16.0521 23.6685 16.2125 24.6986 16.2125C25.7288 16.2125 26.5225 16.0521 27.0798 15.7312C27.654 15.4103 28.0762 15.005 28.3464 14.5152C28.6335 14.0086 28.8024 13.4429 28.8531 12.818C28.9206 12.1931 28.9544 11.5767 28.9544 10.9688V0.430664H32.1209V12.0074C32.1209 13.1727 31.9436 14.1859 31.5889 15.0472C31.2343 15.9085 30.7276 16.6347 30.069 17.2258C29.4273 17.8 28.6504 18.2306 27.7385 18.5177C26.8265 18.8048 25.8132 18.9483 24.6986 18.9483C23.584 18.9483 22.5708 18.8048 21.6588 18.5177C20.7468 18.2306 19.9616 17.8 19.3029 17.2258C18.6612 16.6347 18.163 15.9085 17.8083 15.0472C17.4537 14.1859 17.2764 13.1727 17.2764 12.0074V0.430664Z" fill="white"/>
<path d="M3.38329 12.4887C3.38329 13.1811 3.50151 13.7722 3.73794 14.2619C3.97437 14.7517 4.30369 15.157 4.72589 15.4778C5.14809 15.7818 5.6294 16.0098 6.16981 16.1618C6.72712 16.2969 7.32664 16.3645 7.96838 16.3645C8.66079 16.3645 9.25187 16.2885 9.74162 16.1365C10.2314 15.9676 10.6282 15.7565 10.9322 15.5032C11.2362 15.2499 11.4558 14.9628 11.5909 14.6419C11.726 14.3041 11.7935 13.9664 11.7935 13.6286C11.7935 12.9362 11.6331 12.4296 11.3122 12.1087C11.0082 11.7709 10.6705 11.5345 10.2989 11.3994C9.65718 11.163 8.90566 10.9434 8.04438 10.7408C7.19998 10.5212 6.15292 10.2426 4.90321 9.9048C4.12637 9.70215 3.47618 9.44038 2.95265 9.11951C2.44601 8.78175 2.0407 8.41022 1.73672 8.0049C1.43273 7.59959 1.21319 7.16895 1.07808 6.71297C0.959868 6.257 0.90076 5.79258 0.90076 5.31971C0.90076 4.40776 1.08653 3.62247 1.45806 2.96384C1.84649 2.28832 2.35313 1.73102 2.97798 1.29193C3.60284 0.852843 4.31213 0.531971 5.10587 0.329314C5.8996 0.109771 6.70178 0 7.51241 0C8.45813 0 9.34475 0.12666 10.1723 0.379979C11.0167 0.616411 11.7513 0.979503 12.3761 1.46925C13.0179 1.95901 13.5245 2.56697 13.8961 3.29316C14.2676 4.00245 14.4534 4.82996 14.4534 5.77569H11.2869C11.2024 4.61042 10.8056 3.79135 10.0963 3.31849C9.38697 2.82874 8.48347 2.58386 7.38575 2.58386C7.01421 2.58386 6.63423 2.62608 6.24581 2.71052C5.85738 2.77807 5.50274 2.90473 5.18187 3.0905C4.86099 3.25938 4.59078 3.49581 4.37124 3.7998C4.16858 4.10378 4.06726 4.48376 4.06726 4.93974C4.06726 5.58148 4.26147 6.08812 4.64989 6.45965C5.05521 6.8143 5.57873 7.08451 6.22048 7.27028C6.28803 7.28716 6.54979 7.36316 7.00577 7.49826C7.47863 7.61648 8.00216 7.75158 8.57635 7.90358C9.15054 8.05557 9.70785 8.20756 10.2483 8.35955C10.8056 8.49466 11.2024 8.59598 11.4389 8.66354C12.0299 8.8493 12.545 9.10262 12.9841 9.42349C13.4232 9.74437 13.7863 10.1159 14.0734 10.5381C14.3774 10.9434 14.5969 11.3825 14.732 11.8554C14.884 12.3282 14.96 12.8011 14.96 13.274C14.96 14.2872 14.7489 15.157 14.3267 15.8832C13.9214 16.5924 13.381 17.1751 12.7055 17.6311C12.0299 18.087 11.2615 18.4163 10.4003 18.619C9.53897 18.8385 8.66079 18.9483 7.76573 18.9483C6.73556 18.9483 5.7645 18.8217 4.85255 18.5683C3.9406 18.315 3.14686 17.9266 2.47134 17.4031C1.79582 16.8795 1.25541 16.2125 0.850097 15.4018C0.444785 14.5743 0.233685 13.6033 0.216797 12.4887H3.38329Z" fill="white"/>
<path d="M63.4995 14.2656H61.9927V15.7754H63.4995V15.7822H72.6948V18.5176H60.3325V0.430664H63.4995V14.2656Z" fill="white"/>
<path d="M105.127 22.4346H108.497L115.463 40.5216H112.068L110.371 35.7339H103.152L101.454 40.5216H98.1865L105.127 22.4346ZM104.013 33.3273H109.535L106.825 25.5504H106.749L104.013 33.3273Z" fill="white"/>
<path d="M86.1934 34.4926C86.1934 35.185 86.3116 35.7761 86.548 36.2658C86.7844 36.7556 87.1138 37.1609 87.536 37.4817C87.9582 37.7857 88.4395 38.0137 88.9799 38.1657C89.5372 38.3008 90.1367 38.3684 90.7785 38.3684C91.4709 38.3684 92.0619 38.2924 92.5517 38.1404C93.0414 37.9715 93.4383 37.7604 93.7423 37.5071C94.0463 37.2538 94.2658 36.9667 94.4009 36.6458C94.536 36.308 94.6036 35.9703 94.6036 35.6325C94.6036 34.9401 94.4431 34.4335 94.1223 34.1126C93.8183 33.7748 93.4805 33.5384 93.109 33.4033C92.4672 33.1669 91.7157 32.9473 90.8544 32.7447C90.01 32.5251 88.963 32.2465 87.7133 31.9087C86.9364 31.7061 86.2862 31.4443 85.7627 31.1234C85.2561 30.7857 84.8508 30.4141 84.5468 30.0088C84.2428 29.6035 84.0233 29.1729 83.8882 28.7169C83.7699 28.2609 83.7108 27.7965 83.7108 27.3236C83.7108 26.4117 83.8966 25.6264 84.2681 24.9677C84.6566 24.2922 85.1632 23.7349 85.7881 23.2958C86.4129 22.8567 87.1222 22.5359 87.9159 22.3332C88.7097 22.1137 89.5119 22.0039 90.3225 22.0039C91.2682 22.0039 92.1548 22.1306 92.9823 22.3839C93.8267 22.6203 94.5614 22.9834 95.1862 23.4732C95.828 23.9629 96.3346 24.5709 96.7061 25.2971C97.0777 26.0064 97.2634 26.8339 97.2634 27.7796H94.0969C94.0125 26.6143 93.6156 25.7953 92.9063 25.3224C92.197 24.8326 91.2935 24.5878 90.1958 24.5878C89.8243 24.5878 89.4443 24.63 89.0559 24.7144C88.6675 24.782 88.3128 24.9086 87.9919 25.0944C87.6711 25.2633 87.4009 25.4997 87.1813 25.8037C86.9787 26.1077 86.8773 26.4877 86.8773 26.9436C86.8773 27.5854 87.0715 28.092 87.46 28.4636C87.8653 28.8182 88.3888 29.0884 89.0305 29.2742C89.0981 29.2911 89.3599 29.3671 89.8158 29.5022C90.2887 29.6204 90.8122 29.7555 91.3864 29.9075C91.9606 30.0595 92.5179 30.2115 93.0583 30.3635C93.6156 30.4986 94.0125 30.5999 94.2489 30.6674C94.84 30.8532 95.3551 31.1065 95.7942 31.4274C96.2333 31.7483 96.5964 32.1198 96.8835 32.542C97.1874 32.9473 97.407 33.3864 97.5421 33.8593C97.6941 34.3321 97.7701 34.805 97.7701 35.2779C97.7701 36.2911 97.559 37.1609 97.1368 37.8871C96.7315 38.5964 96.191 39.179 95.5155 39.635C94.84 40.0909 94.0716 40.4203 93.2103 40.6229C92.349 40.8425 91.4709 40.9522 90.5758 40.9522C89.5456 40.9522 88.5746 40.8256 87.6626 40.5722C86.7507 40.3189 85.9569 39.9305 85.2814 39.407C84.6059 38.8834 84.0655 38.2164 83.6602 37.4057C83.2548 36.5782 83.0437 35.6072 83.0269 34.4926H86.1934Z" fill="white"/>
<path d="M59.8746 22.4346H63.2437L70.21 40.5216H66.8155L65.1183 35.7339H57.8987L56.2014 40.5216H52.9336L59.8746 22.4346ZM58.7599 33.3273H64.2823L61.5718 25.5504H61.4958L58.7599 33.3273Z" fill="white"/>
<path d="M39.8076 22.4346H43.1008L47.6352 36.7471H47.6859L52.3216 22.4346H55.5388L49.3578 40.5216H45.8366L39.8076 22.4346Z" fill="white"/>
<path d="M35.0625 22.4346H38.229V40.5216H35.0625V22.4346Z" fill="white"/>
<path d="M3.38378 34.4926C3.38378 35.185 3.502 35.7761 3.73843 36.2658C3.97486 36.7556 4.30418 37.1609 4.72637 37.4817C5.14857 37.7857 5.62988 38.0137 6.1703 38.1657C6.7276 38.3008 7.32712 38.3684 7.96887 38.3684C8.66128 38.3684 9.25235 38.2924 9.74211 38.1404C10.2319 37.9715 10.6287 37.7604 10.9327 37.5071C11.2367 37.2538 11.4562 36.9667 11.5913 36.6458C11.7264 36.308 11.794 35.9703 11.794 35.6325C11.794 34.9401 11.6336 34.4335 11.3127 34.1126C11.0087 33.7748 10.6709 33.5384 10.2994 33.4033C9.65767 33.1669 8.90616 32.9473 8.04487 32.7447C7.20047 32.5251 6.15341 32.2465 4.9037 31.9087C4.12685 31.7061 3.47666 31.4443 2.95314 31.1234C2.4465 30.7857 2.04118 30.4141 1.7372 30.0088C1.43321 29.6035 1.21368 29.1729 1.07858 28.7169C0.96036 28.2609 0.901251 27.7965 0.901251 27.3236C0.901251 26.4117 1.08701 25.6264 1.45855 24.9677C1.84697 24.2922 2.35362 23.7349 2.97847 23.2958C3.60333 22.8567 4.31262 22.5359 5.10636 22.3332C5.90009 22.1137 6.70227 22.0039 7.51289 22.0039C8.45862 22.0039 9.34524 22.1306 10.1728 22.3839C11.0172 22.6203 11.7518 22.9834 12.3766 23.4732C13.0184 23.9629 13.525 24.5709 13.8966 25.2971C14.2681 26.0064 14.4539 26.8339 14.4539 27.7796H11.2874C11.2029 26.6143 10.8061 25.7953 10.0968 25.3224C9.38746 24.8326 8.48396 24.5878 7.38624 24.5878C7.0147 24.5878 6.63472 24.63 6.2463 24.7144C5.85787 24.782 5.50322 24.9086 5.18235 25.0944C4.86148 25.2633 4.59127 25.4997 4.37173 25.8037C4.16907 26.1077 4.06774 26.4877 4.06774 26.9436C4.06774 27.5854 4.26196 28.092 4.65038 28.4636C5.0557 28.8182 5.57922 29.0884 6.22096 29.2742C6.28852 29.2911 6.55028 29.3671 7.00625 29.5022C7.47912 29.6204 8.00264 29.7555 8.57683 29.9075C9.15102 30.0595 9.70833 30.2115 10.2487 30.3635C10.806 30.4986 11.2029 30.5999 11.4394 30.6674C12.0304 30.8532 12.5455 31.1065 12.9846 31.4274C13.4237 31.7483 13.7868 32.1198 14.0739 32.542C14.3779 32.9473 14.5974 33.3864 14.7325 33.8593C14.8845 34.3321 14.9605 34.805 14.9605 35.2779C14.9605 36.2911 14.7494 37.1609 14.3272 37.8871C13.9219 38.5964 13.3815 39.179 12.7059 39.635C12.0304 40.0909 11.262 40.4203 10.4007 40.6229C9.53945 40.8425 8.66127 40.9522 7.76621 40.9522C6.73604 40.9522 5.76498 40.8256 4.85303 40.5722C3.94108 40.3189 3.14735 39.9305 2.47183 39.407C1.79631 38.8834 1.2559 38.2164 0.850584 37.4057C0.445272 36.5782 0.234173 35.6072 0.217285 34.4926H3.38378Z" fill="white"/>
<path d="M82.2715 25.1709H76.5215V25.1748H75.0254V26.6846H76.5215V40.5215H73.3545V25.1709H67.6299V22.4346H82.2715V25.1709Z" fill="white"/>
<path d="M26.1167 22.4346C28.1095 22.4346 29.6047 22.8653 30.6011 23.7266C31.5973 24.5878 32.0951 25.7867 32.0952 27.3232C32.0952 28.1844 31.9686 28.9024 31.7153 29.4766C31.462 30.0339 31.1664 30.4901 30.8286 30.8447C30.491 31.1823 30.1535 31.4271 29.8159 31.5791C29.495 31.7311 29.2579 31.8331 29.106 31.8838V31.9336C29.3761 31.9674 29.6634 32.0524 29.9673 32.1875C30.2881 32.3226 30.5839 32.5418 30.854 32.8457C31.1242 33.1328 31.3443 33.5135 31.5132 33.9863C31.6988 34.459 31.7915 35.0499 31.7915 35.7588C31.7915 36.8227 31.8671 37.7947 32.019 38.6729C32.1879 39.5339 32.4421 40.15 32.7798 40.5215H29.3853C29.1488 40.1331 29.0053 39.7024 28.9546 39.2295C28.9208 38.7567 28.9038 38.3004 28.9038 37.8613C28.9038 37.034 28.8528 36.3244 28.7515 35.7334C28.6501 35.1256 28.464 34.6276 28.1938 34.2393C27.9237 33.8341 27.5524 33.5383 27.0796 33.3525C26.6236 33.1668 26.0323 33.0742 25.3062 33.0742H20.645V40.5215H17.479V22.4346H26.1167ZM19.1392 25.0186V26.5283H20.645V30.667H25.8384C26.8517 30.667 27.6205 30.4309 28.144 29.958C28.6674 29.4683 28.9292 28.7417 28.9292 27.7793C28.9292 27.2053 28.8441 26.7413 28.6753 26.3867C28.5064 26.0152 28.2702 25.728 27.9663 25.5254C27.6792 25.3227 27.3411 25.1877 26.9526 25.1201C26.5812 25.0526 26.1928 25.0186 25.7876 25.0186H19.1392Z" fill="white"/>
</svg>
