<svg width="60" height="60" viewBox="0 0 60 60" fill="none" xmlns="http://www.w3.org/2000/svg">
<g clip-path="url(#clip0_1900_1616)">
<path d="M30.1133 12.2251C39.948 12.2253 47.9209 20.198 47.9209 30.0327C47.9206 39.8672 39.9478 47.8392 30.1133 47.8394C20.2786 47.8394 12.3059 39.8673 12.3057 30.0327C12.3057 20.1979 20.2785 12.2251 30.1133 12.2251ZM24.5996 19.1392C24.2957 19.443 20.3991 22.2279 21.2275 26.9927C21.6085 29.1815 24.025 31.5407 26.0166 33.937C28.8491 37.3455 29.386 38.2528 29.8789 39.4946C31.087 42.5376 30.0235 45.6564 29.8633 46.2876C29.8851 46.2706 32.4168 44.2888 32.9004 41.6304C33.3051 39.4039 33.2112 38.8281 33.043 37.8179C32.638 35.389 30.8942 33.3501 28.8516 31.103C26.8271 28.8759 26.6445 28.7383 25.1553 26.7661C24.2844 25.6128 23.7807 24.4875 23.752 23.0562C23.7098 20.9473 24.8675 18.8711 24.5996 19.1392ZM21.7646 38.1802L29.835 46.2407L25.1836 34.7329L21.7646 38.1802ZM29.875 13.7573C29.8721 13.7602 29.643 13.9838 29.6426 14.0044C29.6436 14.0119 29.7519 14.1421 29.833 14.3159C29.9598 14.5886 30.03 15.0177 29.7197 15.3755C29.2933 15.8666 28.7683 15.797 28.4629 15.6577C28.2891 15.5788 28.2076 15.4607 28.2021 15.4526L27.9961 15.6646C27.9961 15.6646 28.1505 15.789 28.2373 16.0249C28.3448 16.3175 28.3643 16.7882 28.0322 17.1128C27.6642 17.4717 27.2069 17.444 26.9092 17.3384C26.6838 17.2585 26.5625 17.0981 26.5625 17.0981C26.5518 17.138 25.3811 21.5265 27.5371 24.5073C28.7986 26.2517 29.9039 27.3828 31.1533 28.8765C32.6979 30.7219 35.4835 33.2033 35.6357 36.3726C35.7578 38.9139 35.0877 40.9954 35.0518 41.0796C35.0189 41.1548 36.9113 39.2575 37.5186 38.0425C38.126 36.8281 38.5966 35.8541 38.5967 34.2534C38.5967 32.1351 37.4297 30.4093 36.5635 29.1968C35.2925 27.4175 34.6284 26.9048 33.8232 25.9761C33.0729 25.1107 30.8158 22.8837 30.2363 21.9604C29.6342 21.0003 29.5356 20.4504 29.6426 19.6479C29.695 19.2561 29.9386 19.1638 30.1836 19.1724C30.461 19.1817 30.6546 19.4125 30.6357 19.8218C30.6124 20.3335 30.594 21.3035 31.4922 21.7817C32.2063 22.1618 32.5223 22.0017 33.1143 21.8667C33.7732 21.7156 34.1421 21.7149 34.7793 21.7476C35.8697 21.8036 36.8675 23.0407 36.8877 23.0659L38.0293 21.9653L29.875 13.7573Z" fill="url(#paint0_linear_1900_1616)"/>
</g>
<defs>
<linearGradient id="paint0_linear_1900_1616" x1="30.1132" y1="12.2251" x2="30.1132" y2="47.8391" gradientUnits="userSpaceOnUse">
<stop stop-color="#A4AC97"/>
<stop offset="1" stop-color="#A4AC97"/>
</linearGradient>
<clipPath id="clip0_1900_1616">
<rect width="36" height="36" fill="white" transform="translate(12 12)"/>
</clipPath>
</defs>
</svg>
