<svg xmlns="http://www.w3.org/2000/svg" width="100" height="60" viewBox="0 0 134 19" fill="none" color="#9DFF00">
<g clip-path="url(#hermeus-clip)">
<path d="M15.8874 15.0834C16.4834 15.1537 16.9518 15.6406 16.9936 16.2448V16.7524H26.445V18.919H14.476L14.4758 15.0834H15.8874ZM1.41162 15.0829C2.0076 15.1532 2.47607 15.64 2.51789 16.2443V18.9182H0V15.0829H1.41162ZM2.51789 11.6744H9.45201V6.9874H11.9698V18.9182H9.45201V13.8438H4.88088L0 13.8433V6.9874H2.51789V11.6744ZM16.9936 6.98904H26.445V9.15562H16.9936V11.6749H23.9242V11.6762H26.445V13.8427H23.9242V13.8443H19.3566L14.4758 13.8438V6.98792H16.9936V6.98904Z" fill="currentColor"/>
<path d="M64.0991 15.0835C64.695 15.1538 65.1638 15.6407 65.2056 16.245V16.7532H74.6578V18.9197H62.6889L62.6876 18.9189V15.0835H64.0991ZM65.2056 6.9892H74.6578V9.15569H65.2056V11.6751H72.136V11.6763H74.6578V13.8429H72.136V13.8445H67.5684L62.6876 13.8439V6.98807H65.2056V6.9892Z" fill="currentColor"/>
<path d="M93.336 15.5524C93.3434 16.2565 93.9164 16.8249 94.6222 16.8249V16.8307H99.3784V16.8342C100.082 16.8291 100.65 16.2574 100.65 15.5528C100.65 15.553 100.65 15.5527 100.65 15.5528L102.775 15.5524C102.775 15.5523 102.775 15.5526 102.775 15.5524C102.775 17.4105 101.287 18.9215 99.4375 18.958H94.5532V18.9561C92.7018 18.9195 91.2115 17.4109 91.2042 15.5524H93.336ZM94.6217 6.98771H99.3871C101.26 7.00417 102.774 8.52821 102.774 10.4055H100.643C100.642 9.69541 100.067 9.11987 99.3565 9.11982L99.3556 9.11883H94.6217C94.6213 9.11883 94.6209 9.11952 94.6209 9.11952C93.9104 9.11956 93.3348 9.69537 93.3348 10.4056C93.3348 11.0659 93.8324 11.6099 94.4731 11.6831C94.4752 11.6842 94.4783 11.685 94.4817 11.6856C94.5403 11.695 94.6153 11.6974 94.6454 11.6974L94.6472 11.6963H99.3767C101.245 11.7008 102.761 13.2105 102.774 15.0772L102.775 15.5524L100.651 15.5516V15.1017C100.65 14.397 100.08 13.8255 99.3767 13.821V13.8239H94.5515V13.8228C92.6958 13.7859 91.2029 12.2701 91.2029 10.4056C91.2029 8.54109 92.6958 7.02524 94.5515 6.98831L94.5985 6.98771C94.6062 6.98767 94.6144 6.98771 94.6217 6.98771Z" fill="currentColor"/>
<path d="M35.2135 6.99399H37.3413C39.1979 7.02984 40.692 8.54681 40.6921 10.412C40.6921 11.3789 40.2905 12.2519 39.6451 12.8736C39.6154 12.8971 39.5857 12.9239 39.5562 12.9542C39.5505 12.9601 39.5445 12.9659 39.5387 12.9718C39.3417 13.1461 39.1245 13.2981 38.891 13.4237C38.2884 13.7197 37.6074 13.8069 37.2587 13.8073H37.2464C37.203 13.8094 37.1626 13.8105 37.126 13.8106H36.0063V13.8394C36.4344 13.9137 36.8736 14.1036 37.2804 14.3386C38.307 14.9461 39.9347 16.3448 41.0747 18.7864C41.0963 18.8327 41.1176 18.8777 41.1385 18.9215H41.0506C41.0506 18.9214 41.0507 18.9217 41.0506 18.9215L38.4549 18.922C38.4549 18.9221 38.4548 18.9219 38.4549 18.922L38.3219 18.9216C37.0749 16.2388 34.5134 14.2907 31.4649 13.9046V18.9227H28.9479V6.99261H35.2135V6.99399ZM31.4649 11.6778H37.5027C38.1038 11.5699 38.5601 11.0442 38.5601 10.412C38.56 9.70182 37.9843 9.12602 37.2742 9.12593L34.9055 9.12511V9.12377H31.4649V11.6778Z" fill="currentColor"/>
<path d="M59.5333 6.99764H60.2042V18.9307H57.703V9.16492H57.3807L53.0394 18.9308H50.2759L45.9371 9.17043H45.5885V18.9307H43.0874V6.99764H47.7079L51.6576 15.8822L55.6073 6.99764H56.2183H59.5333Z" fill="currentColor"/>
<path d="M79.6769 14.7646H79.6791C79.683 14.839 79.6912 14.9122 79.7041 14.9838C79.8208 15.8794 80.5408 16.5853 81.4426 16.6805V16.6904H84.8253V18.9373H81.1341V18.9312C78.9199 18.8141 77.1547 17.0032 77.1103 14.7703H77.1073V7.06082H79.6769V14.7646ZM89.1589 14.7703H89.1576C89.1119 17.0795 87.2256 18.9372 84.9059 18.9372C84.8787 18.9372 84.852 18.9378 84.8253 18.9373V16.6802C85.7124 16.5856 86.4229 15.9006 86.5561 15.0258C86.5737 14.9408 86.5849 14.8536 86.5888 14.7645L86.5892 7.06082H89.1589V14.7703Z" fill="currentColor"/>
<path d="M111.809 15.0886C112.431 14.2639 113.526 13.5352 114.819 13.5064C116.199 13.4734 117.547 13.5608 118.935 13.6748C121.79 13.8964 125.961 14.1116 128.249 13.0312C127.072 14.981 124.907 16.2946 122.463 16.2946C122.32 16.2946 122.175 16.2914 122.035 16.2829C120.381 16.1699 118.483 15.7374 117.048 15.3794C116.011 15.1163 114.992 14.8712 113.942 14.7093C113.162 14.5878 112.446 14.7167 111.828 15.0822C111.822 15.0854 111.815 15.0896 111.81 15.0928" fill="currentColor"/>
<path d="M112.256 13.4556C112.97 12.7428 113.871 12.3582 114.923 12.3252C116.302 12.2794 117.661 12.3593 119.049 12.4594C121.113 12.599 123.882 12.7194 126.115 12.3624C129.015 11.8692 131.343 9.68189 132.043 6.85428C129.436 8.66122 124.359 9.42833 120.864 9.83424C119.127 10.0271 117.493 10.1517 115.806 10.5374C114.264 10.8901 112.904 11.9874 112.255 13.4566" fill="currentColor"/>
<path d="M133.682 0.000732422C127.768 5.64738 113.023 4.44454 107.833 10.0166C107.64 10.2148 107.456 10.4204 107.275 10.6356C108.095 11.3665 108.633 12.3009 108.913 13.3023C109.058 13.8074 109.125 14.3411 109.125 14.893C109.125 16.3611 108.574 17.7004 107.67 18.7178C107.648 18.7413 107.627 18.7657 107.605 18.7903C107.553 18.8478 107.499 18.9043 107.444 18.9586C109.282 18.2426 110.66 16.6105 111.02 14.6235C111.025 14.5926 111.028 14.5606 111.032 14.5297C111.043 14.4487 111.054 14.3677 111.07 14.2879C111.407 12.661 112.427 11.4741 112.881 11.0703C113.785 10.2244 114.921 9.62349 116.183 9.3763C119.289 8.71364 124.995 8.20117 127.849 7.20184C127.849 7.20184 128.162 7.09636 128.276 7.06013C129.421 6.70747 133.263 4.91866 133.682 0.0401536L133.68 0.00179887L133.682 0.000732422Z" fill="currentColor"/>
<path d="M111.82 16.2289C112.153 15.9444 112.766 15.5332 113.702 15.7004C114.701 15.8783 115.666 16.1404 116.65 16.4217C118.676 16.9906 121.67 17.7428 123.467 17.3252L123.458 17.3305C122.389 18.2457 121.001 18.7986 119.483 18.7986C118.67 18.7986 117.887 18.6452 117.178 18.3565C116.391 18.0475 115.622 17.6789 114.991 17.355C114.268 16.98 113.557 16.6241 112.8 16.345C112.491 16.231 112.147 16.1905 111.83 16.2278" fill="currentColor"/>
</g>
<defs>
<clipPath id="hermeus-clip">
<rect width="134" height="19" fill="white"/>
</clipPath>
</defs>
</svg>
